<svg width="253" height="95" viewBox="0 0 253 95" fill="none" xmlns="http://www.w3.org/2000/svg">
<path d="M18.48 53.768C15.248 53.768 12.336 53 9.744 51.464C7.152 49.896 5.12 47.768 3.648 45.08C2.176 42.392 1.44 39.432 1.44 36.2C1.44 33.096 2.176 30.248 3.648 27.656C5.152 25.064 7.232 23.016 9.888 21.512C12.544 20.008 15.568 19.256 18.96 19.256C20.816 19.256 22.608 19.464 24.336 19.88C26.096 20.296 27.68 20.888 29.088 21.656L25.92 29.096C23.744 28.2 21.712 27.752 19.824 27.752C17.36 27.752 15.456 28.552 14.112 30.152C12.768 31.72 12.096 33.784 12.096 36.344C12.096 38.008 12.4 39.512 13.008 40.856C13.616 42.168 14.464 43.208 15.552 43.976C16.672 44.744 17.936 45.128 19.344 45.128C20.112 45.128 20.752 45.064 21.264 44.936V37.208L29.568 36.248V51.272C25.952 52.936 22.256 53.768 18.48 53.768ZM50.7926 53.768C47.3366 53.768 44.2646 53.032 41.5766 51.56C38.9206 50.088 36.8406 48.056 35.3366 45.464C33.8646 42.84 33.1286 39.864 33.1286 36.536C33.1286 33.176 33.8646 30.184 35.3366 27.56C36.8406 24.936 38.9206 22.904 41.5766 21.464C44.2646 19.992 47.3366 19.256 50.7926 19.256C54.2486 19.256 57.3046 19.992 59.9606 21.464C62.6486 22.904 64.7286 24.936 66.2006 27.56C67.7046 30.152 68.4566 33.144 68.4566 36.536C68.4566 39.864 67.7046 42.84 66.2006 45.464C64.7286 48.056 62.6486 50.088 59.9606 51.56C57.2726 53.032 54.2166 53.768 50.7926 53.768ZM50.7926 45.032C52.8086 45.032 54.4566 44.248 55.7366 42.68C57.0486 41.112 57.7046 39.048 57.7046 36.488C57.7046 34.792 57.4006 33.288 56.7926 31.976C56.2166 30.632 55.4006 29.592 54.3446 28.856C53.2886 28.088 52.0886 27.704 50.7446 27.704C49.4326 27.704 48.2486 28.088 47.1926 28.856C46.1366 29.592 45.3206 30.632 44.7446 31.976C44.1686 33.288 43.8806 34.792 43.8806 36.488C43.8806 39.048 44.5206 41.112 45.8006 42.68C47.0806 44.248 48.7446 45.032 50.7926 45.032ZM83.2815 53.768C78.7695 53.768 74.9615 52.936 71.8575 51.272L74.2575 43.832C77.5535 45.016 80.4975 45.608 83.0895 45.608C84.4975 45.608 85.5215 45.448 86.1615 45.128C86.8335 44.776 87.1695 44.264 87.1695 43.592C87.1695 43.144 86.9935 42.76 86.6415 42.44C86.2895 42.088 85.5855 41.704 84.5295 41.288C83.4735 40.872 81.8895 40.36 79.7775 39.752C77.1855 38.984 75.1695 37.736 73.7295 36.008C72.2895 34.248 71.5695 32.232 71.5695 29.96C71.5695 26.44 72.7215 23.784 75.0255 21.992C77.3615 20.168 80.4975 19.256 84.4335 19.256C86.4815 19.256 88.4975 19.48 90.4815 19.928C92.4655 20.344 94.2255 20.968 95.7615 21.8L93.1695 29.048C91.3775 28.44 89.8095 28.008 88.4655 27.752C87.1535 27.464 85.8735 27.32 84.6255 27.32C82.5135 27.32 81.4575 27.896 81.4575 29.048C81.4575 29.624 81.7935 30.12 82.4655 30.536C83.1695 30.92 84.5935 31.416 86.7375 32.024C90.0975 32.92 92.6415 34.296 94.3695 36.152C96.0975 37.976 96.9615 40.168 96.9615 42.728C96.9615 46.28 95.8095 49.016 93.5055 50.936C91.2015 52.824 87.7935 53.768 83.2815 53.768ZM111.453 53.768C106.941 53.768 103.133 52.936 100.029 51.272L102.429 43.832C105.725 45.016 108.669 45.608 111.261 45.608C112.669 45.608 113.693 45.448 114.333 45.128C115.005 44.776 115.341 44.264 115.341 43.592C115.341 43.144 115.165 42.76 114.813 42.44C114.461 42.088 113.757 41.704 112.701 41.288C111.645 40.872 110.061 40.36 107.949 39.752C105.357 38.984 103.341 37.736 101.901 36.008C100.461 34.248 99.7414 32.232 99.7414 29.96C99.7414 26.44 100.893 23.784 103.197 21.992C105.533 20.168 108.669 19.256 112.605 19.256C114.653 19.256 116.669 19.48 118.653 19.928C120.637 20.344 122.397 20.968 123.933 21.8L121.341 29.048C119.549 28.44 117.981 28.008 116.637 27.752C115.325 27.464 114.045 27.32 112.797 27.32C110.685 27.32 109.629 27.896 109.629 29.048C109.629 29.624 109.965 30.12 110.637 30.536C111.341 30.92 112.765 31.416 114.909 32.024C118.269 32.92 120.813 34.296 122.541 36.152C124.269 37.976 125.133 40.168 125.133 42.728C125.133 46.28 123.981 49.016 121.677 50.936C119.373 52.824 115.965 53.768 111.453 53.768ZM129.636 19.976H140.724V53H129.636V19.976ZM146.979 19.976H158.883C163.811 19.976 167.619 20.936 170.307 22.856C173.027 24.776 174.387 27.464 174.387 30.92C174.387 33.096 173.715 35 172.371 36.632C171.059 38.264 169.251 39.528 166.947 40.424C164.675 41.288 162.147 41.72 159.363 41.72H157.347V53H146.979V19.976ZM159.411 35.048C161.107 35.048 162.419 34.696 163.347 33.992C164.275 33.288 164.739 32.264 164.739 30.92C164.739 29.576 164.275 28.568 163.347 27.896C162.451 27.224 161.139 26.888 159.411 26.888H157.347V34.952C157.987 35.016 158.675 35.048 159.411 35.048Z" fill="#333333"/>
<path d="M171.086 86.9375C169.93 86.9375 168.875 86.7812 167.922 86.4688C166.969 86.1562 166.148 85.7109 165.461 85.1328C164.773 84.5547 164.242 83.8594 163.867 83.0469C163.492 82.2344 163.305 81.3516 163.305 80.3984C163.305 79.4766 163.469 78.6094 163.797 77.7969C164.125 77 164.586 76.2891 165.18 75.6641C165.758 75.0547 166.445 74.5859 167.242 74.2578C168.039 73.9141 168.883 73.7422 169.773 73.7422C171.008 73.7422 171.992 74.0391 172.727 74.6328C173.477 75.2266 173.852 76.0312 173.852 77.0469C173.852 77.8125 173.68 78.4219 173.336 78.875C173.039 78.4844 172.641 78.1797 172.141 77.9609C171.656 77.7422 171.141 77.6328 170.594 77.6328C169.609 77.6328 168.828 77.9453 168.25 78.5703C167.641 79.2109 167.336 80.0469 167.336 81.0781C167.336 82.0938 167.633 82.9219 168.227 83.5625C168.805 84.2188 169.547 84.5469 170.453 84.5469C171.562 84.5469 172.516 84.0469 173.312 83.0469C174.109 82.0625 174.727 80.5938 175.164 78.6406L177.555 68.0234H177.367C176.477 69.2422 175.414 70.1719 174.18 70.8125C172.961 71.4531 171.625 71.7734 170.172 71.7734C168.766 71.7734 167.492 71.4922 166.352 70.9297C165.211 70.3516 164.234 69.5312 163.422 68.4688C162.609 67.4062 161.984 66.125 161.547 64.625C161.109 63.125 160.891 61.4609 160.891 59.6328C160.891 57.8672 161.086 56.1719 161.477 54.5469C161.883 52.9062 162.469 51.375 163.234 49.9531C164.766 47.0781 166.852 44.8281 169.492 43.2031C172.211 41.5156 175.188 40.6719 178.422 40.6719C179.766 40.6719 180.984 40.8281 182.078 41.1406C183.188 41.4375 184.125 41.8672 184.891 42.4297C185.656 43.0078 186.242 43.7109 186.648 44.5391C187.055 45.3516 187.258 46.2656 187.258 47.2812C187.258 48.6406 186.922 49.7422 186.25 50.5859C185.922 50.9922 185.523 51.3047 185.055 51.5234C184.602 51.7422 184.117 51.8516 183.602 51.8516C183.008 51.8516 182.445 51.7266 181.914 51.4766C181.383 51.2109 180.938 50.8359 180.578 50.3516C181.141 49.9766 181.625 49.3594 182.031 48.5C182.438 47.6406 182.641 46.7891 182.641 45.9453C182.641 44.9766 182.359 44.2344 181.797 43.7188C181.25 43.1875 180.461 42.9219 179.43 42.9219C178.492 42.9219 177.562 43.1406 176.641 43.5781C175.734 44.0156 174.859 44.6328 174.016 45.4297C173.188 46.2109 172.422 47.1484 171.719 48.2422C171.016 49.3203 170.414 50.4922 169.914 51.7578C168.836 54.4297 168.297 57.2422 168.297 60.1953C168.297 62.6172 168.672 64.4609 169.422 65.7266C170.188 66.9766 171.297 67.6016 172.75 67.6016C174.5 67.6016 176.023 66.7031 177.32 64.9062C178.633 63.0938 179.703 60.4219 180.531 56.8906L186.203 56.9375L182.688 73.0625C181.656 77.8125 180.211 81.3203 178.352 83.5859C176.492 85.8203 174.07 86.9375 171.086 86.9375ZM195.766 50.3984C195.25 50.3984 194.758 50.3047 194.289 50.1172C193.82 49.9141 193.414 49.6406 193.07 49.2969C192.727 48.9688 192.453 48.5703 192.25 48.1016C192.062 47.6328 191.969 47.1406 191.969 46.625C191.969 46.1094 192.062 45.6172 192.25 45.1484C192.453 44.6797 192.727 44.2656 193.07 43.9062C193.414 43.5469 193.82 43.2734 194.289 43.0859C194.758 42.8828 195.25 42.7812 195.766 42.7812C196.281 42.7812 196.773 42.8828 197.242 43.0859C197.711 43.2734 198.125 43.5469 198.484 43.9062C198.844 44.2656 199.117 44.6797 199.305 45.1484C199.508 45.6172 199.609 46.1094 199.609 46.625C199.609 47.1406 199.508 47.6328 199.305 48.1016C199.117 48.5703 198.844 48.9688 198.484 49.2969C198.125 49.6406 197.711 49.9141 197.242 50.1172C196.773 50.3047 196.281 50.3984 195.766 50.3984ZM192.508 77.2812C190.977 77.2812 189.766 76.8281 188.875 75.9219C187.875 74.9219 187.375 73.4609 187.375 71.5391C187.375 70.6328 187.5 69.5859 187.75 68.3984L191.008 53H197.922L194.477 69.3125C194.352 69.7188 194.289 70.2344 194.289 70.8594C194.289 71.5156 194.438 71.9766 194.734 72.2422C195.047 72.5078 195.547 72.6406 196.234 72.6406C196.703 72.6406 197.156 72.5391 197.594 72.3359C198.047 72.1172 198.461 71.8203 198.836 71.4453C199.602 70.6797 200.18 69.6641 200.57 68.3984H202.586C201.727 70.8203 200.648 72.75 199.352 74.1875C198.258 75.3594 197.023 76.2031 195.648 76.7188C194.648 77.0938 193.602 77.2812 192.508 77.2812ZM203.852 53H210.766L210.156 55.9766C211.25 55.0078 212.141 54.3203 212.828 53.9141C213.891 53.3047 214.93 53 215.945 53C216.977 53 217.805 53.3672 218.43 54.1016C218.711 54.4297 218.922 54.8125 219.062 55.25C219.203 55.6719 219.273 56.125 219.273 56.6094C219.273 57.0469 219.203 57.4688 219.062 57.875C218.922 58.2812 218.711 58.6484 218.43 58.9766C218.117 59.3203 217.734 59.5938 217.281 59.7969C216.844 60 216.352 60.1016 215.805 60.1016C215.383 60.1016 215.047 60.0312 214.797 59.8906C214.547 59.75 214.352 59.5469 214.211 59.2812C214.086 59.0156 214 58.7578 213.953 58.5078C213.812 57.8359 213.672 57.3906 213.531 57.1719C213.422 57.0156 213.25 56.9375 213.016 56.9375C212.344 56.9375 211.773 57.0781 211.305 57.3594C210.836 57.6406 210.242 58.1094 209.523 58.7656L205.68 77H198.766L203.852 53ZM223.398 77.2812C221.867 77.2812 220.656 76.8281 219.766 75.9219C218.766 74.9219 218.266 73.4609 218.266 71.5391C218.266 70.6328 218.391 69.5859 218.641 68.3984L223.773 44.3516L230.875 43.3906L225.367 69.3125C225.242 69.7188 225.18 70.2344 225.18 70.8594C225.18 71.5156 225.328 71.9766 225.625 72.2422C225.938 72.5078 226.438 72.6406 227.125 72.6406C227.594 72.6406 228.047 72.5391 228.484 72.3359C228.938 72.1172 229.352 71.8203 229.727 71.4453C230.492 70.6797 231.07 69.6641 231.461 68.3984H233.477C232.617 70.8203 231.539 72.75 230.242 74.1875C229.148 75.3594 227.914 76.2031 226.539 76.7188C225.539 77.0938 224.492 77.2812 223.398 77.2812ZM243.719 55.6016H241.047C240.188 55.6016 239.562 55.6406 239.172 55.7188C238.656 55.8125 238.398 56.0234 238.398 56.3516C238.398 56.4297 238.43 56.4766 238.492 56.4922C238.617 56.5234 238.734 56.6328 238.844 56.8203C238.891 56.9297 238.914 57.125 238.914 57.4062C238.914 58.25 238.648 58.8984 238.117 59.3516C237.617 59.7578 237.023 59.9609 236.336 59.9609C235.773 59.9609 235.273 59.7812 234.836 59.4219C234.367 59.0312 234.133 58.5078 234.133 57.8516C234.133 57.3516 234.266 56.8203 234.531 56.2578C234.797 55.6797 235.164 55.1562 235.633 54.6875C236.133 54.1719 236.727 53.7656 237.414 53.4688C238.117 53.1562 238.875 53 239.688 53H252.039L240.273 73.2969C240.43 73.3125 240.977 73.3672 241.914 73.4609C242.57 73.5547 243.234 73.6016 243.906 73.6016C244.562 73.6016 245.086 73.5312 245.477 73.3906C245.867 73.25 246.102 73 246.18 72.6406C245.867 72.6094 245.633 72.5078 245.477 72.3359C245.336 72.1484 245.266 71.9141 245.266 71.6328C245.266 71.3984 245.32 71.1641 245.43 70.9297C245.555 70.6797 245.727 70.4531 245.945 70.25C246.477 69.7969 247.141 69.5703 247.938 69.5703C248.656 69.5703 249.188 69.7812 249.531 70.2031C249.891 70.625 250.07 71.1797 250.07 71.8672C250.07 72.4297 249.938 73.0156 249.672 73.625C249.406 74.2188 249.023 74.7656 248.523 75.2656C247.992 75.7969 247.359 76.2188 246.625 76.5312C245.906 76.8438 245.102 77 244.211 77H231.484L243.719 55.6016Z" fill="#FD97FF"/>
</svg>
