<svg width="306" height="23" viewBox="0 0 306 23" fill="none" xmlns="http://www.w3.org/2000/svg">
<path opacity="0.75" d="M6.608 18.12C5.36 18.12 4.24 17.848 3.248 17.304C2.272 16.76 1.504 16 0.944 15.024C0.384 14.032 0.104 12.92 0.104 11.688C0.104 10.456 0.384 9.352 0.944 8.376C1.504 7.4 2.272 6.64 3.248 6.096C4.24 5.552 5.36 5.28 6.608 5.28C7.696 5.28 8.664 5.496 9.512 5.928C10.376 6.344 11.056 6.96 11.552 7.776L10.28 8.64C9.864 8.016 9.336 7.552 8.696 7.248C8.056 6.928 7.36 6.768 6.608 6.768C5.696 6.768 4.872 6.976 4.136 7.392C3.416 7.792 2.848 8.368 2.432 9.12C2.032 9.872 1.832 10.728 1.832 11.688C1.832 12.664 2.032 13.528 2.432 14.28C2.848 15.016 3.416 15.592 4.136 16.008C4.872 16.408 5.696 16.608 6.608 16.608C7.36 16.608 8.056 16.456 8.696 16.152C9.336 15.848 9.864 15.384 10.28 14.76L11.552 15.624C11.056 16.44 10.376 17.064 9.512 17.496C8.648 17.912 7.68 18.12 6.608 18.12ZM19.8485 18.12C18.6325 18.12 17.5365 17.848 16.5605 17.304C15.5845 16.744 14.8165 15.976 14.2565 15C13.6965 14.024 13.4165 12.92 13.4165 11.688C13.4165 10.456 13.6965 9.352 14.2565 8.376C14.8165 7.4 15.5845 6.64 16.5605 6.096C17.5365 5.552 18.6325 5.28 19.8485 5.28C21.0645 5.28 22.1605 5.552 23.1365 6.096C24.1125 6.64 24.8725 7.4 25.4165 8.376C25.9765 9.352 26.2565 10.456 26.2565 11.688C26.2565 12.92 25.9765 14.024 25.4165 15C24.8725 15.976 24.1125 16.744 23.1365 17.304C22.1605 17.848 21.0645 18.12 19.8485 18.12ZM19.8485 16.608C20.7445 16.608 21.5445 16.408 22.2485 16.008C22.9685 15.592 23.5285 15.008 23.9285 14.256C24.3285 13.504 24.5285 12.648 24.5285 11.688C24.5285 10.728 24.3285 9.872 23.9285 9.12C23.5285 8.368 22.9685 7.792 22.2485 7.392C21.5445 6.976 20.7445 6.768 19.8485 6.768C18.9525 6.768 18.1445 6.976 17.4245 7.392C16.7205 7.792 16.1605 8.368 15.7445 9.12C15.3445 9.872 15.1445 10.728 15.1445 11.688C15.1445 12.648 15.3445 13.504 15.7445 14.256C16.1605 15.008 16.7205 15.592 17.4245 16.008C18.1445 16.408 18.9525 16.608 19.8485 16.608ZM36.1674 5.28C37.7514 5.28 39.0074 5.744 39.9354 6.672C40.8794 7.584 41.3514 8.92 41.3514 10.68V18H39.6474V10.848C39.6474 9.536 39.3194 8.536 38.6634 7.848C38.0074 7.16 37.0714 6.816 35.8554 6.816C34.4954 6.816 33.4154 7.224 32.6154 8.04C31.8314 8.84 31.4394 9.952 31.4394 11.376V18H29.7354V5.376H31.3674V7.704C31.8314 6.936 32.4714 6.344 33.2874 5.928C34.1194 5.496 35.0794 5.28 36.1674 5.28ZM52.6256 17.232C52.3056 17.52 51.9056 17.744 51.4256 17.904C50.9616 18.048 50.4736 18.12 49.9616 18.12C48.7776 18.12 47.8656 17.8 47.2256 17.16C46.5856 16.52 46.2656 15.616 46.2656 14.448V6.816H44.0096V5.376H46.2656V2.616H47.9696V5.376H51.8096V6.816H47.9696V14.352C47.9696 15.104 48.1536 15.68 48.5216 16.08C48.9056 16.464 49.4496 16.656 50.1536 16.656C50.5056 16.656 50.8416 16.6 51.1616 16.488C51.4976 16.376 51.7856 16.216 52.0256 16.008L52.6256 17.232ZM60.1436 5.28C61.7916 5.28 63.0556 5.696 63.9356 6.528C64.8156 7.344 65.2556 8.56 65.2556 10.176V18H63.6236V16.032C63.2396 16.688 62.6716 17.2 61.9196 17.568C61.1836 17.936 60.3036 18.12 59.2796 18.12C57.8716 18.12 56.7516 17.784 55.9196 17.112C55.0876 16.44 54.6716 15.552 54.6716 14.448C54.6716 13.376 55.0556 12.512 55.8236 11.856C56.6076 11.2 57.8476 10.872 59.5436 10.872H63.5516V10.104C63.5516 9.016 63.2476 8.192 62.6396 7.632C62.0316 7.056 61.1436 6.768 59.9756 6.768C59.1756 6.768 58.4076 6.904 57.6716 7.176C56.9356 7.432 56.3036 7.792 55.7756 8.256L55.0076 6.984C55.6476 6.44 56.4156 6.024 57.3116 5.736C58.2076 5.432 59.1516 5.28 60.1436 5.28ZM59.5436 16.776C60.5036 16.776 61.3276 16.56 62.0156 16.128C62.7036 15.68 63.2156 15.04 63.5516 14.208V12.144H59.5916C57.4316 12.144 56.3516 12.896 56.3516 14.4C56.3516 15.136 56.6316 15.72 57.1916 16.152C57.7516 16.568 58.5356 16.776 59.5436 16.776ZM75.1627 18.12C73.9147 18.12 72.7947 17.848 71.8027 17.304C70.8267 16.76 70.0587 16 69.4987 15.024C68.9387 14.032 68.6587 12.92 68.6587 11.688C68.6587 10.456 68.9387 9.352 69.4987 8.376C70.0587 7.4 70.8267 6.64 71.8027 6.096C72.7947 5.552 73.9147 5.28 75.1627 5.28C76.2507 5.28 77.2187 5.496 78.0667 5.928C78.9307 6.344 79.6107 6.96 80.1067 7.776L78.8347 8.64C78.4187 8.016 77.8907 7.552 77.2507 7.248C76.6107 6.928 75.9147 6.768 75.1627 6.768C74.2507 6.768 73.4267 6.976 72.6907 7.392C71.9707 7.792 71.4027 8.368 70.9867 9.12C70.5867 9.872 70.3867 10.728 70.3867 11.688C70.3867 12.664 70.5867 13.528 70.9867 14.28C71.4027 15.016 71.9707 15.592 72.6907 16.008C73.4267 16.408 74.2507 16.608 75.1627 16.608C75.9147 16.608 76.6107 16.456 77.2507 16.152C77.8907 15.848 78.4187 15.384 78.8347 14.76L80.1067 15.624C79.6107 16.44 78.9307 17.064 78.0667 17.496C77.2027 17.912 76.2347 18.12 75.1627 18.12ZM90.2428 17.232C89.9228 17.52 89.5228 17.744 89.0428 17.904C88.5788 18.048 88.0908 18.12 87.5788 18.12C86.3948 18.12 85.4828 17.8 84.8428 17.16C84.2028 16.52 83.8828 15.616 83.8828 14.448V6.816H81.6268V5.376H83.8828V2.616H85.5868V5.376H89.4268V6.816H85.5868V14.352C85.5868 15.104 85.7708 15.68 86.1388 16.08C86.5228 16.464 87.0668 16.656 87.7708 16.656C88.1228 16.656 88.4588 16.6 88.7788 16.488C89.1148 16.376 89.4028 16.216 89.6428 16.008L90.2428 17.232ZM92.1744 10.752H98.4624V12.24H92.1744V10.752ZM113.65 5.376V18H112.018V15.696C111.57 16.464 110.954 17.064 110.17 17.496C109.386 17.912 108.49 18.12 107.482 18.12C105.834 18.12 104.53 17.664 103.57 16.752C102.626 15.824 102.154 14.472 102.154 12.696V5.376H103.858V12.528C103.858 13.856 104.186 14.864 104.842 15.552C105.498 16.24 106.434 16.584 107.65 16.584C108.978 16.584 110.026 16.184 110.794 15.384C111.562 14.568 111.946 13.44 111.946 12V5.376H113.65ZM121.807 18.12C120.783 18.12 119.799 17.976 118.855 17.688C117.927 17.384 117.199 17.008 116.671 16.56L117.439 15.216C117.967 15.632 118.631 15.976 119.431 16.248C120.231 16.504 121.063 16.632 121.927 16.632C123.079 16.632 123.927 16.456 124.471 16.104C125.031 15.736 125.311 15.224 125.311 14.568C125.311 14.104 125.159 13.744 124.855 13.488C124.551 13.216 124.167 13.016 123.703 12.888C123.239 12.744 122.623 12.608 121.855 12.48C120.831 12.288 120.007 12.096 119.383 11.904C118.759 11.696 118.223 11.352 117.775 10.872C117.343 10.392 117.127 9.728 117.127 8.88C117.127 7.824 117.567 6.96 118.447 6.288C119.327 5.616 120.551 5.28 122.119 5.28C122.935 5.28 123.751 5.392 124.567 5.616C125.383 5.824 126.055 6.104 126.583 6.456L125.839 7.824C124.799 7.104 123.559 6.744 122.119 6.744C121.031 6.744 120.207 6.936 119.647 7.32C119.103 7.704 118.831 8.208 118.831 8.832C118.831 9.312 118.983 9.696 119.287 9.984C119.607 10.272 119.999 10.488 120.463 10.632C120.927 10.76 121.567 10.896 122.383 11.04C123.391 11.232 124.199 11.424 124.807 11.616C125.415 11.808 125.935 12.136 126.367 12.6C126.799 13.064 127.015 13.704 127.015 14.52C127.015 15.624 126.551 16.504 125.623 17.16C124.711 17.8 123.439 18.12 121.807 18.12ZM140.245 1.056C142.389 1.056 144.301 1.504 145.981 2.4C147.677 3.28 148.997 4.528 149.941 6.144C150.885 7.744 151.357 9.576 151.357 11.64C151.357 13.672 151.005 15.264 150.301 16.416C149.597 17.552 148.621 18.12 147.373 18.12C146.589 18.12 145.949 17.888 145.453 17.424C144.973 16.96 144.709 16.32 144.661 15.504C144.181 16.336 143.525 16.984 142.693 17.448C141.861 17.896 140.917 18.12 139.861 18.12C138.741 18.12 137.725 17.856 136.813 17.328C135.917 16.784 135.205 16.04 134.677 15.096C134.165 14.152 133.909 13.088 133.909 11.904C133.909 10.72 134.165 9.664 134.677 8.736C135.205 7.792 135.917 7.056 136.813 6.528C137.725 6 138.741 5.736 139.861 5.736C140.885 5.736 141.805 5.96 142.621 6.408C143.453 6.84 144.117 7.456 144.613 8.256V5.832H146.173V14.928C146.173 15.568 146.309 16.032 146.581 16.32C146.853 16.608 147.213 16.752 147.661 16.752C148.413 16.752 149.005 16.304 149.437 15.408C149.885 14.512 150.109 13.264 150.109 11.664C150.109 9.808 149.693 8.176 148.861 6.768C148.029 5.344 146.861 4.24 145.357 3.456C143.869 2.672 142.165 2.28 140.245 2.28C138.309 2.28 136.589 2.688 135.085 3.504C133.597 4.304 132.437 5.44 131.605 6.912C130.773 8.368 130.357 10.032 130.357 11.904C130.357 13.776 130.765 15.448 131.581 16.92C132.413 18.392 133.565 19.536 135.037 20.352C136.525 21.168 138.229 21.576 140.149 21.576C140.901 21.576 141.685 21.488 142.501 21.312C143.333 21.136 144.085 20.872 144.757 20.52L145.165 21.696C144.477 22.048 143.677 22.32 142.765 22.512C141.869 22.704 140.997 22.8 140.149 22.8C137.973 22.8 136.045 22.336 134.365 21.408C132.685 20.48 131.373 19.192 130.429 17.544C129.501 15.88 129.037 14 129.037 11.904C129.037 9.792 129.509 7.92 130.453 6.288C131.397 4.64 132.717 3.36 134.413 2.448C136.125 1.52 138.069 1.056 140.245 1.056ZM140.077 16.728C140.941 16.728 141.717 16.528 142.405 16.128C143.093 15.728 143.637 15.168 144.037 14.448C144.437 13.712 144.637 12.864 144.637 11.904C144.637 10.96 144.437 10.128 144.037 9.408C143.637 8.672 143.093 8.112 142.405 7.728C141.717 7.328 140.941 7.128 140.077 7.128C139.197 7.128 138.405 7.328 137.701 7.728C137.013 8.128 136.469 8.688 136.069 9.408C135.685 10.128 135.493 10.96 135.493 11.904C135.493 12.848 135.685 13.688 136.069 14.424C136.469 15.144 137.013 15.712 137.701 16.128C138.405 16.528 139.197 16.728 140.077 16.728ZM166.65 5.376V16.464C166.65 18.608 166.122 20.192 165.066 21.216C164.026 22.256 162.45 22.776 160.338 22.776C159.17 22.776 158.058 22.6 157.002 22.248C155.962 21.912 155.114 21.44 154.458 20.832L155.322 19.536C155.93 20.08 156.666 20.504 157.53 20.808C158.41 21.112 159.33 21.264 160.29 21.264C161.89 21.264 163.066 20.888 163.818 20.136C164.57 19.4 164.946 18.248 164.946 16.68V15.072C164.418 15.872 163.722 16.48 162.858 16.896C162.01 17.312 161.066 17.52 160.026 17.52C158.842 17.52 157.762 17.264 156.786 16.752C155.826 16.224 155.066 15.496 154.506 14.568C153.962 13.624 153.69 12.56 153.69 11.376C153.69 10.192 153.962 9.136 154.506 8.208C155.066 7.28 155.826 6.56 156.786 6.048C157.746 5.536 158.826 5.28 160.026 5.28C161.098 5.28 162.066 5.496 162.93 5.928C163.794 6.36 164.49 6.984 165.018 7.8V5.376H166.65ZM160.194 16.008C161.106 16.008 161.93 15.816 162.666 15.432C163.402 15.032 163.97 14.48 164.37 13.776C164.786 13.072 164.994 12.272 164.994 11.376C164.994 10.48 164.786 9.688 164.37 9C163.97 8.296 163.402 7.752 162.666 7.368C161.946 6.968 161.122 6.768 160.194 6.768C159.282 6.768 158.458 6.96 157.722 7.344C157.002 7.728 156.434 8.272 156.018 8.976C155.618 9.68 155.418 10.48 155.418 11.376C155.418 12.272 155.618 13.072 156.018 13.776C156.434 14.48 157.002 15.032 157.722 15.432C158.458 15.816 159.282 16.008 160.194 16.008ZM176.575 18.12C175.359 18.12 174.263 17.848 173.287 17.304C172.311 16.744 171.543 15.976 170.983 15C170.423 14.024 170.143 12.92 170.143 11.688C170.143 10.456 170.423 9.352 170.983 8.376C171.543 7.4 172.311 6.64 173.287 6.096C174.263 5.552 175.359 5.28 176.575 5.28C177.791 5.28 178.887 5.552 179.863 6.096C180.839 6.64 181.599 7.4 182.143 8.376C182.703 9.352 182.983 10.456 182.983 11.688C182.983 12.92 182.703 14.024 182.143 15C181.599 15.976 180.839 16.744 179.863 17.304C178.887 17.848 177.791 18.12 176.575 18.12ZM176.575 16.608C177.471 16.608 178.271 16.408 178.975 16.008C179.695 15.592 180.255 15.008 180.655 14.256C181.055 13.504 181.255 12.648 181.255 11.688C181.255 10.728 181.055 9.872 180.655 9.12C180.255 8.368 179.695 7.792 178.975 7.392C178.271 6.976 177.471 6.768 176.575 6.768C175.679 6.768 174.871 6.976 174.151 7.392C173.447 7.792 172.887 8.368 172.471 9.12C172.071 9.872 171.871 10.728 171.871 11.688C171.871 12.648 172.071 13.504 172.471 14.256C172.887 15.008 173.447 15.592 174.151 16.008C174.871 16.408 175.679 16.608 176.575 16.608ZM189.846 18.12C188.822 18.12 187.838 17.976 186.894 17.688C185.966 17.384 185.238 17.008 184.71 16.56L185.478 15.216C186.006 15.632 186.67 15.976 187.47 16.248C188.27 16.504 189.102 16.632 189.966 16.632C191.118 16.632 191.966 16.456 192.51 16.104C193.07 15.736 193.35 15.224 193.35 14.568C193.35 14.104 193.198 13.744 192.894 13.488C192.59 13.216 192.206 13.016 191.742 12.888C191.278 12.744 190.662 12.608 189.894 12.48C188.87 12.288 188.046 12.096 187.422 11.904C186.798 11.696 186.262 11.352 185.814 10.872C185.382 10.392 185.166 9.728 185.166 8.88C185.166 7.824 185.606 6.96 186.486 6.288C187.366 5.616 188.59 5.28 190.158 5.28C190.974 5.28 191.79 5.392 192.606 5.616C193.422 5.824 194.094 6.104 194.622 6.456L193.878 7.824C192.838 7.104 191.598 6.744 190.158 6.744C189.07 6.744 188.246 6.936 187.686 7.32C187.142 7.704 186.87 8.208 186.87 8.832C186.87 9.312 187.022 9.696 187.326 9.984C187.646 10.272 188.038 10.488 188.502 10.632C188.966 10.76 189.606 10.896 190.422 11.04C191.43 11.232 192.238 11.424 192.846 11.616C193.454 11.808 193.974 12.136 194.406 12.6C194.838 13.064 195.054 13.704 195.054 14.52C195.054 15.624 194.59 16.504 193.662 17.16C192.75 17.8 191.478 18.12 189.846 18.12ZM201.588 18.12C200.564 18.12 199.58 17.976 198.636 17.688C197.708 17.384 196.98 17.008 196.452 16.56L197.22 15.216C197.748 15.632 198.412 15.976 199.212 16.248C200.012 16.504 200.844 16.632 201.708 16.632C202.86 16.632 203.708 16.456 204.252 16.104C204.812 15.736 205.092 15.224 205.092 14.568C205.092 14.104 204.94 13.744 204.636 13.488C204.332 13.216 203.948 13.016 203.484 12.888C203.02 12.744 202.404 12.608 201.636 12.48C200.612 12.288 199.788 12.096 199.164 11.904C198.54 11.696 198.004 11.352 197.556 10.872C197.124 10.392 196.908 9.728 196.908 8.88C196.908 7.824 197.348 6.96 198.228 6.288C199.108 5.616 200.332 5.28 201.9 5.28C202.716 5.28 203.532 5.392 204.348 5.616C205.164 5.824 205.836 6.104 206.364 6.456L205.62 7.824C204.58 7.104 203.34 6.744 201.9 6.744C200.812 6.744 199.988 6.936 199.428 7.32C198.884 7.704 198.612 8.208 198.612 8.832C198.612 9.312 198.764 9.696 199.068 9.984C199.388 10.272 199.78 10.488 200.244 10.632C200.708 10.76 201.348 10.896 202.164 11.04C203.172 11.232 203.98 11.424 204.588 11.616C205.196 11.808 205.716 12.136 206.148 12.6C206.58 13.064 206.796 13.704 206.796 14.52C206.796 15.624 206.332 16.504 205.404 17.16C204.492 17.8 203.22 18.12 201.588 18.12ZM209.946 5.376H211.65V18H209.946V5.376ZM210.81 2.616C210.458 2.616 210.162 2.496 209.922 2.256C209.682 2.016 209.562 1.728 209.562 1.392C209.562 1.072 209.682 0.791999 209.922 0.551999C210.162 0.311999 210.458 0.191999 210.81 0.191999C211.162 0.191999 211.458 0.311999 211.698 0.551999C211.938 0.775999 212.058 1.048 212.058 1.368C212.058 1.72 211.938 2.016 211.698 2.256C211.458 2.496 211.162 2.616 210.81 2.616ZM222.896 5.28C224.08 5.28 225.152 5.552 226.112 6.096C227.072 6.624 227.824 7.376 228.368 8.352C228.912 9.328 229.184 10.44 229.184 11.688C229.184 12.952 228.912 14.072 228.368 15.048C227.824 16.024 227.072 16.784 226.112 17.328C225.168 17.856 224.096 18.12 222.896 18.12C221.872 18.12 220.944 17.912 220.112 17.496C219.296 17.064 218.624 16.44 218.096 15.624V22.656H216.392V5.376H218.024V7.872C218.536 7.04 219.208 6.4 220.04 5.952C220.888 5.504 221.84 5.28 222.896 5.28ZM222.776 16.608C223.656 16.608 224.456 16.408 225.176 16.008C225.896 15.592 226.456 15.008 226.856 14.256C227.272 13.504 227.48 12.648 227.48 11.688C227.48 10.728 227.272 9.88 226.856 9.144C226.456 8.392 225.896 7.808 225.176 7.392C224.456 6.976 223.656 6.768 222.776 6.768C221.88 6.768 221.072 6.976 220.352 7.392C219.648 7.808 219.088 8.392 218.672 9.144C218.272 9.88 218.072 10.728 218.072 11.688C218.072 12.648 218.272 13.504 218.672 14.256C219.088 15.008 219.648 15.592 220.352 16.008C221.072 16.408 221.88 16.608 222.776 16.608ZM244.345 5.376V16.464C244.345 18.608 243.817 20.192 242.761 21.216C241.721 22.256 240.145 22.776 238.033 22.776C236.865 22.776 235.753 22.6 234.697 22.248C233.657 21.912 232.809 21.44 232.153 20.832L233.017 19.536C233.625 20.08 234.361 20.504 235.225 20.808C236.105 21.112 237.025 21.264 237.985 21.264C239.585 21.264 240.761 20.888 241.513 20.136C242.265 19.4 242.641 18.248 242.641 16.68V15.072C242.113 15.872 241.417 16.48 240.553 16.896C239.705 17.312 238.761 17.52 237.721 17.52C236.537 17.52 235.457 17.264 234.481 16.752C233.521 16.224 232.761 15.496 232.201 14.568C231.657 13.624 231.385 12.56 231.385 11.376C231.385 10.192 231.657 9.136 232.201 8.208C232.761 7.28 233.521 6.56 234.481 6.048C235.441 5.536 236.521 5.28 237.721 5.28C238.793 5.28 239.761 5.496 240.625 5.928C241.489 6.36 242.185 6.984 242.713 7.8V5.376H244.345ZM237.889 16.008C238.801 16.008 239.625 15.816 240.361 15.432C241.097 15.032 241.665 14.48 242.065 13.776C242.481 13.072 242.689 12.272 242.689 11.376C242.689 10.48 242.481 9.688 242.065 9C241.665 8.296 241.097 7.752 240.361 7.368C239.641 6.968 238.817 6.768 237.889 6.768C236.977 6.768 236.153 6.96 235.417 7.344C234.697 7.728 234.129 8.272 233.713 8.976C233.313 9.68 233.113 10.48 233.113 11.376C233.113 12.272 233.313 13.072 233.713 13.776C234.129 14.48 234.697 15.032 235.417 15.432C236.153 15.816 236.977 16.008 237.889 16.008ZM249.11 5.376H250.814V18H249.11V5.376ZM249.974 2.616C249.622 2.616 249.326 2.496 249.086 2.256C248.846 2.016 248.726 1.728 248.726 1.392C248.726 1.072 248.846 0.791999 249.086 0.551999C249.326 0.311999 249.622 0.191999 249.974 0.191999C250.326 0.191999 250.622 0.311999 250.862 0.551999C251.102 0.775999 251.222 1.048 251.222 1.368C251.222 1.72 251.102 2.016 250.862 2.256C250.622 2.496 250.326 2.616 249.974 2.616ZM257.188 7.848C257.588 7 258.18 6.36 258.964 5.928C259.764 5.496 260.748 5.28 261.916 5.28V6.936L261.508 6.912C260.18 6.912 259.14 7.32 258.388 8.136C257.636 8.952 257.26 10.096 257.26 11.568V18H255.556V5.376H257.188V7.848ZM265.001 0.191999H266.705V18H265.001V0.191999ZM280.35 16.584V18H270.078V16.872L278.022 6.816H270.222V5.376H280.206V6.504L272.262 16.584H280.35ZM283.919 18.12C283.567 18.12 283.263 17.992 283.007 17.736C282.767 17.48 282.647 17.168 282.647 16.8C282.647 16.432 282.767 16.128 283.007 15.888C283.263 15.632 283.567 15.504 283.919 15.504C284.271 15.504 284.575 15.632 284.831 15.888C285.087 16.128 285.215 16.432 285.215 16.8C285.215 17.168 285.087 17.48 284.831 17.736C284.575 17.992 284.271 18.12 283.919 18.12ZM293.013 1.512C292.277 1.512 291.717 1.712 291.333 2.112C290.965 2.512 290.781 3.104 290.781 3.888V5.376H294.669V6.816H290.829V18H289.125V6.816H286.869V5.376H289.125V3.816C289.125 2.664 289.453 1.752 290.109 1.08C290.781 0.407999 291.725 0.0719991 292.941 0.0719991C293.421 0.0719991 293.885 0.143999 294.333 0.287999C294.781 0.415999 295.157 0.607999 295.461 0.863999L294.885 2.136C294.389 1.72 293.765 1.512 293.013 1.512ZM300.524 7.848C300.924 7 301.516 6.36 302.3 5.928C303.1 5.496 304.084 5.28 305.252 5.28V6.936L304.844 6.912C303.516 6.912 302.476 7.32 301.724 8.136C300.972 8.952 300.596 10.096 300.596 11.568V18H298.892V5.376H300.524V7.848Z" fill="#BDBDBD"/>
</svg>
